<svg width="16" height="16" viewBox="0 0 16 16" fill="none" xmlns="http://www.w3.org/2000/svg">
<path fill-rule="evenodd" clip-rule="evenodd" d="M13.7017 4.18927C14.0117 4.46327 14.0407 4.93727 13.7667 5.24927L8.01665 11.7493C7.95025 11.8244 7.86947 11.8854 7.77908 11.9287C7.6887 11.972 7.59054 11.9968 7.49042 12.0016C7.3903 12.0063 7.29024 11.991 7.19616 11.9564C7.10207 11.9218 7.01587 11.8687 6.94265 11.8003L3.19265 8.30027C3.04839 8.16431 2.96382 7.97678 2.95742 7.77865C2.95103 7.58052 3.02333 7.38792 3.15852 7.24295C3.29372 7.09797 3.48081 7.01242 3.6789 7.00498C3.87699 6.99755 4.06997 7.06884 4.21565 7.20327L7.40565 10.1733L12.6457 4.25327C12.711 4.17936 12.7903 4.11907 12.8789 4.07584C12.9676 4.03262 13.0639 4.00731 13.1624 4.00136C13.2608 3.99542 13.3595 4.00896 13.4527 4.0412C13.546 4.07344 13.6319 4.12376 13.7057 4.18927H13.7017Z" fill="#FDF6F0"/>
</svg>